<svg width="25" height="24" viewBox="0 0 25 24" fill="none" xmlns="http://www.w3.org/2000/svg">
<circle cx="12.5211" cy="12" r="12" fill="#FBB04D"/>
<g clip-path="url(#clip0_3515_1100)">
<path d="M6.52112 6H18.5211C18.6979 6 18.8675 6.07024 18.9925 6.19526C19.1176 6.32029 19.1878 6.48986 19.1878 6.66667V17.3333C19.1878 17.5101 19.1176 17.6797 18.9925 17.8047C18.8675 17.9298 18.6979 18 18.5211 18H6.52112C6.34431 18 6.17474 17.9298 6.04972 17.8047C5.92469 17.6797 5.85445 17.5101 5.85445 17.3333V6.66667C5.85445 6.48986 5.92469 6.32029 6.04972 6.19526C6.17474 6.07024 6.34431 6 6.52112 6ZM17.8545 8.82533L12.5691 13.5587L7.18779 8.81067V16.6667H17.8545V8.82533ZM7.52845 7.33333L12.5618 11.7747L17.5225 7.33333H7.52845Z" fill="#1A1033"/>
</g>
<defs>
<clipPath id="clip0_3515_1100">
<rect width="16" height="16" fill="white" transform="translate(4.52112 4)"/>
</clipPath>
</defs>
</svg>
