<svg width="16" height="16" viewBox="0 0 16 16" fill="none" xmlns="http://www.w3.org/2000/svg">
<g clip-path="url(#clip0_3873_772)">
<path d="M7.99967 14.6666C4.31767 14.6666 1.33301 11.682 1.33301 7.99998C1.33301 4.31798 4.31767 1.33331 7.99967 1.33331C11.6817 1.33331 14.6663 4.31798 14.6663 7.99998C14.6663 11.682 11.6817 14.6666 7.99967 14.6666ZM7.99967 13.3333C9.41416 13.3333 10.7707 12.7714 11.7709 11.7712C12.7711 10.771 13.333 9.41447 13.333 7.99998C13.333 6.58549 12.7711 5.22894 11.7709 4.22874C10.7707 3.22855 9.41416 2.66665 7.99967 2.66665C6.58519 2.66665 5.22863 3.22855 4.22844 4.22874C3.22824 5.22894 2.66634 6.58549 2.66634 7.99998C2.66634 9.41447 3.22824 10.771 4.22844 11.7712C5.22863 12.7714 6.58519 13.3333 7.99967 13.3333ZM5.66634 9.33331H9.33301C9.42141 9.33331 9.5062 9.29819 9.56871 9.23568C9.63122 9.17317 9.66634 9.08839 9.66634 8.99998C9.66634 8.91157 9.63122 8.82679 9.56871 8.76428C9.5062 8.70177 9.42141 8.66665 9.33301 8.66665H6.66634C6.22431 8.66665 5.80039 8.49105 5.48783 8.17849C5.17527 7.86593 4.99967 7.44201 4.99967 6.99998C4.99967 6.55795 5.17527 6.13403 5.48783 5.82147C5.80039 5.50891 6.22431 5.33331 6.66634 5.33331H7.33301V3.99998H8.66634V5.33331H10.333V6.66665H6.66634C6.57794 6.66665 6.49315 6.70177 6.43064 6.76428C6.36813 6.82679 6.33301 6.91157 6.33301 6.99998C6.33301 7.08839 6.36813 7.17317 6.43064 7.23568C6.49315 7.29819 6.57794 7.33331 6.66634 7.33331H9.33301C9.77504 7.33331 10.199 7.50891 10.5115 7.82147C10.8241 8.13403 10.9997 8.55795 10.9997 8.99998C10.9997 9.44201 10.8241 9.86593 10.5115 10.1785C10.199 10.4911 9.77504 10.6666 9.33301 10.6666H8.66634V12H7.33301V10.6666H5.66634V9.33331Z" fill="#FBB04D"/>
</g>
<defs>
<clipPath id="clip0_3873_772">
<rect width="16" height="16" fill="white"/>
</clipPath>
</defs>
</svg>
