<svg width="25" height="24" viewBox="0 0 25 24" fill="none" xmlns="http://www.w3.org/2000/svg">
<circle cx="12.5211" cy="12" r="12" fill="#FBB04D"/>
<g clip-path="url(#clip0_3515_1116)">
<path d="M10.7651 11.1213C11.3907 12.2203 12.3008 13.1304 13.3998 13.756L13.9891 12.9307C14.0839 12.798 14.224 12.7046 14.383 12.6682C14.542 12.6319 14.7087 12.655 14.8518 12.7333C15.7947 13.2486 16.8359 13.5585 17.9071 13.6427C18.0743 13.6559 18.2304 13.7317 18.3442 13.8549C18.458 13.9781 18.5211 14.1396 18.5211 14.3073V17.282C18.5212 17.4471 18.46 17.6063 18.3494 17.7288C18.2388 17.8513 18.0867 17.9285 17.9225 17.9453C17.5691 17.982 17.2131 18 16.8545 18C11.1478 18 6.52112 13.3733 6.52112 7.66667C6.52112 7.308 6.53912 6.952 6.57578 6.59867C6.59262 6.43446 6.66977 6.28235 6.79231 6.17176C6.91485 6.06116 7.07406 5.99996 7.23912 6H10.2138C10.3815 5.99998 10.543 6.06317 10.6662 6.17697C10.7894 6.29077 10.8652 6.44682 10.8785 6.614C10.9626 7.68519 11.2725 8.72645 11.7878 9.66933C11.8661 9.81238 11.8893 9.97916 11.8529 10.1381C11.8165 10.2971 11.7232 10.4372 11.5905 10.532L10.7651 11.1213ZM9.08378 10.6833L10.3505 9.77867C9.99097 9.00273 9.74469 8.17923 9.61912 7.33333H7.86112C7.85712 7.444 7.85512 7.55533 7.85512 7.66667C7.85445 12.6373 11.8838 16.6667 16.8545 16.6667C16.9658 16.6667 17.0771 16.6647 17.1878 16.66V14.902C16.3419 14.7764 15.5184 14.5301 14.7425 14.1707L13.8378 15.4373C13.4736 15.2958 13.1198 15.1287 12.7791 14.9373L12.7405 14.9153C11.4328 14.1711 10.35 13.0883 9.60578 11.7807L9.58378 11.742C9.39239 11.4013 9.22531 11.0476 9.08378 10.6833Z" fill="#1A1033"/>
</g>
<defs>
<clipPath id="clip0_3515_1116">
<rect width="16" height="16" fill="white" transform="translate(4.52112 4)"/>
</clipPath>
</defs>
</svg>
